<?xml version="1.0" standalone="no"?>
<!DOCTYPE svg PUBLIC "-//W3C//DTD SVG 20010904//EN"
 "http://www.w3.org/TR/2001/REC-SVG-20010904/DTD/svg10.dtd">
<svg version="1.0" xmlns="http://www.w3.org/2000/svg"
 width="450.000000pt" height="450.000000pt" viewBox="0 0 450.000000 450.000000"
 preserveAspectRatio="xMidYMid meet">
<metadata>
Created by potrace 1.11, written by Peter Selinger 2001-2013
</metadata>
<g transform="translate(0.000000,450.000000) scale(0.100000,-0.100000)"
fill="#000000" stroke="none">
<path d="M500 2540 l0 -750 170 0 170 0 0 750 0 750 -170 0 -170 0 0 -750z"/>
<path d="M1675 3277 c-103 -35 -219 -126 -269 -212 -65 -110 -72 -259 -17
-369 17 -34 69 -108 117 -166 47 -58 102 -125 122 -150 21 -25 118 -144 217
-265 207 -253 272 -333 444 -546 172 -214 223 -265 301 -303 60 -28 73 -31
170 -31 103 0 106 1 178 39 96 51 176 131 216 215 28 60 31 75 31 166 0 92 -3
105 -31 165 -18 36 -56 95 -85 131 -30 36 -171 208 -314 383 -298 365 -361
442 -539 662 -152 188 -181 216 -264 256 -52 25 -79 31 -150 34 -55 3 -102 -1
-127 -9z m234 -194 c12 -23 -4 -53 -29 -53 -26 0 -45 36 -29 56 16 19 46 18
58 -3z m-211 -82 c6 -39 -39 -56 -58 -22 -15 30 -2 53 29 49 19 -2 27 -10 29
-27z m307 -56 c0 -35 -31 -47 -51 -20 -18 25 0 57 29 53 17 -2 22 -10 22 -33z
m-206 -52 c12 -23 -4 -53 -29 -53 -25 0 -41 29 -29 52 12 23 45 23 58 1z m305
-49 c19 -19 20 -26 4 -42 -11 -11 -58 -17 -58 -8 0 2 -3 11 -6 19 -5 14 20 47
36 47 5 0 16 -7 24 -16z m-503 -10 c17 -21 0 -49 -32 -49 -18 0 -25 6 -27 24
-6 38 34 55 59 25z m293 -60 c21 -21 3 -57 -26 -52 -30 4 -45 32 -29 52 17 20
35 20 55 0z m-200 -60 c12 -12 13 -20 6 -35 -12 -21 -40 -25 -58 -7 -16 16
-15 23 4 42 19 20 29 20 48 0z m300 -60 c7 -19 -10 -54 -27 -54 -35 0 -50 52
-20 68 20 12 39 6 47 -14z m-200 -60 c19 -19 20 -25 3 -48 -18 -25 -57 -13
-57 18 0 21 17 46 31 46 4 0 15 -7 23 -16z m1024 -631 c4 -28 -32 -50 -54 -32
-15 12 -19 41 -7 53 16 15 58 1 61 -21z m-214 -59 c12 -12 13 -20 6 -35 -12
-21 -40 -25 -58 -7 -16 16 -15 23 4 42 19 20 29 20 48 0z m307 -50 c9 -11 10
-20 2 -32 -13 -22 -43 -22 -56 -1 -24 38 25 68 54 33z m-210 -70 c9 -11 10
-20 2 -32 -13 -22 -43 -22 -56 -1 -24 38 25 68 54 33z m310 -50 c9 -11 10 -20
2 -32 -15 -24 -44 -27 -59 -7 -28 38 27 75 57 39z m-506 -15 c14 -42 -45 -66
-61 -24 -10 25 4 45 30 45 16 0 27 -7 31 -21z m296 -55 c17 -21 0 -49 -32 -49
-24 0 -36 23 -25 51 7 19 40 18 57 -2z m-195 -70 c8 -31 -6 -47 -37 -42 -43 6
-38 68 5 68 19 0 27 -7 32 -26z m294 -49 c14 -17 5 -51 -17 -59 -33 -13 -57
36 -31 62 16 16 33 15 48 -3z m-199 -61 c17 -21 0 -49 -32 -49 -27 0 -37 28
-19 50 16 19 34 19 51 -1z"/>
<path d="M2657 3280 c-55 -14 -112 -46 -159 -88 -40 -36 -158 -175 -158 -186
0 -13 116 -146 131 -151 10 -3 22 -18 27 -34 5 -15 43 -68 84 -117 40 -49 85
-103 98 -120 107 -134 192 -234 200 -234 9 0 130 144 222 264 64 83 92 171 86
268 -8 127 -56 219 -160 304 -85 70 -149 96 -248 100 -47 2 -102 -1 -123 -6z
m34 -196 c17 -21 0 -49 -32 -49 -24 0 -36 23 -25 51 7 19 40 18 57 -2z m214
-75 c14 -42 -45 -66 -61 -24 -10 25 4 45 30 45 16 0 27 -7 31 -21z m-314 -45
c17 -21 0 -49 -32 -49 -18 0 -25 6 -27 24 -6 38 34 55 59 25z m212 -76 c13
-20 -6 -48 -34 -48 -28 0 -43 35 -23 55 19 19 43 16 57 -7z m197 -59 c14 -26
-4 -51 -34 -47 -21 3 -32 28 -22 54 8 21 44 17 56 -7z m-300 -54 c20 -24 3
-57 -28 -53 -30 3 -41 30 -22 53 16 19 34 19 50 0z m200 -66 c14 -26 -4 -51
-34 -47 -24 4 -33 33 -16 53 17 21 37 19 50 -6z m-106 -115 c9 -8 16 -21 16
-28 0 -16 -20 -36 -36 -36 -14 0 -44 27 -44 40 0 5 7 16 16 24 8 9 19 16 24
16 5 0 16 -7 24 -16z"/>
<path d="M3650 3110 l0 -170 170 0 170 0 0 170 0 170 -170 0 -170 0 0 -170z"/>
<path d="M3660 1965 l0 -735 165 0 165 0 0 735 0 735 -165 0 -165 0 0 -735z"/>
<path d="M1537 2028 c-65 -79 -131 -170 -148 -204 -55 -110 -48 -259 17 -369
37 -64 139 -153 214 -189 59 -28 74 -31 165 -31 88 0 107 3 159 28 32 15 77
44 100 64 44 39 155 173 156 186 0 16 -115 148 -140 160 -14 7 -27 24 -30 37
-5 28 -348 458 -365 459 -6 1 -64 -63 -128 -141z m251 -69 c3 -28 -16 -43 -43
-33 -15 6 -21 45 -8 58 16 16 48 1 51 -25z m-99 -103 c25 -30 -24 -71 -54 -46
-18 15 -19 32 -3 48 16 16 43 15 57 -2z m211 -75 c7 -15 6 -24 -6 -36 -31 -31
-82 6 -55 39 18 22 48 20 61 -3z m-311 -50 c13 -24 -8 -55 -35 -49 -20 3 -30
29 -20 54 8 20 43 17 55 -5z m210 -68 c12 -23 -4 -53 -29 -53 -25 0 -41 29
-29 52 12 23 45 23 58 1z m196 -78 c0 -23 -5 -31 -21 -33 -30 -4 -48 21 -34
48 18 33 55 23 55 -15z m-311 -31 c27 -10 14 -74 -15 -74 -10 0 -39 30 -39 40
0 8 28 40 35 40 2 0 10 -3 19 -6z m216 -75 c23 -41 -38 -68 -63 -27 -8 12 -7
21 2 32 19 22 48 20 61 -5z"/>
<path d="M500 1375 l0 -165 170 0 170 0 0 165 0 165 -170 0 -170 0 0 -165z"/>
</g>
</svg>
